<mxfile host="Electron" modified="2024-02-28T15:20:56.878Z" agent="Mozilla/5.0 (X11; Linux x86_64) AppleWebKit/537.36 (KHTML, like Gecko) draw.io/23.1.5 Chrome/120.0.6099.109 Electron/28.1.0 Safari/537.36" etag="V1t6G_sHzgJM8uK63LUp" compressed="false" version="23.1.5" type="device">
  <diagram id="jLFWp5vPmYcwOU4BX7Fm" name="examples">
    <mxGraphModel dx="1471" dy="-1726" grid="1" gridSize="10" guides="1" tooltips="1" connect="1" arrows="1" fold="1" page="1" pageScale="1" pageWidth="1100" pageHeight="850" math="0" shadow="0">
      <root>
        <mxCell id="VsSiiwDWSvhPQYji7nPq-0" />
        <mxCell id="VsSiiwDWSvhPQYji7nPq-1" parent="VsSiiwDWSvhPQYji7nPq-0" />
        <mxCell id="fGfg8FIc3iVIy_l3jMsQ-0" value="&lt;font color=&quot;#ff0000&quot;&gt;&lt;span style=&quot;font-size: 14px;&quot;&gt;&lt;b&gt;Waste Water Treatment Plant with OPC UA&lt;/b&gt;&lt;/span&gt;&lt;/font&gt;" style="text;html=1;strokeColor=none;fillColor=none;align=center;verticalAlign=middle;whiteSpace=wrap;rounded=0;" parent="VsSiiwDWSvhPQYji7nPq-1" vertex="1">
          <mxGeometry x="1200" y="3540" width="290" height="30" as="geometry" />
        </mxCell>
        <mxCell id="vCoXFfWsMupg1NY0Csr--0" value="" style="rounded=1;whiteSpace=wrap;html=1;fillColor=#f8cecc;strokeColor=#b85450;" parent="VsSiiwDWSvhPQYji7nPq-1" vertex="1">
          <mxGeometry x="1230.6" y="3620" width="190" height="90" as="geometry" />
        </mxCell>
        <mxCell id="vCoXFfWsMupg1NY0Csr--1" value="" style="rounded=1;whiteSpace=wrap;html=1;fillColor=#d5e8d4;strokeColor=#82b366;" parent="VsSiiwDWSvhPQYji7nPq-1" vertex="1">
          <mxGeometry x="1490.6" y="3620" width="190" height="120" as="geometry" />
        </mxCell>
        <mxCell id="vCoXFfWsMupg1NY0Csr--2" value="Open Modelica" style="rounded=1;whiteSpace=wrap;html=1;" parent="VsSiiwDWSvhPQYji7nPq-1" vertex="1">
          <mxGeometry x="1535.6" y="3760" width="100" height="40" as="geometry" />
        </mxCell>
        <mxCell id="vCoXFfWsMupg1NY0Csr--3" value="Test_DTCONEDAR.mo" style="text;html=1;strokeColor=none;fillColor=none;align=center;verticalAlign=middle;whiteSpace=wrap;rounded=0;" parent="VsSiiwDWSvhPQYji7nPq-1" vertex="1">
          <mxGeometry x="1506.6" y="3827" width="150" height="30" as="geometry" />
        </mxCell>
        <mxCell id="vCoXFfWsMupg1NY0Csr--4" value="Test_DTCONEDAR.fmu" style="text;html=1;strokeColor=#00572B;fillColor=#FFFFFF;align=center;verticalAlign=middle;whiteSpace=wrap;rounded=0;" parent="VsSiiwDWSvhPQYji7nPq-1" vertex="1">
          <mxGeometry x="1506.6" y="3697" width="150" height="30" as="geometry" />
        </mxCell>
        <mxCell id="vCoXFfWsMupg1NY0Csr--5" style="edgeStyle=orthogonalEdgeStyle;rounded=0;orthogonalLoop=1;jettySize=auto;html=1;" parent="VsSiiwDWSvhPQYji7nPq-1" edge="1">
          <mxGeometry relative="1" as="geometry">
            <mxPoint x="1581.6" y="3754" as="sourcePoint" />
            <mxPoint x="1581.6" y="3729" as="targetPoint" />
            <Array as="points">
              <mxPoint x="1581.6" y="3757" />
            </Array>
          </mxGeometry>
        </mxCell>
        <mxCell id="vCoXFfWsMupg1NY0Csr--6" style="edgeStyle=orthogonalEdgeStyle;rounded=0;orthogonalLoop=1;jettySize=auto;html=1;" parent="VsSiiwDWSvhPQYji7nPq-1" edge="1">
          <mxGeometry relative="1" as="geometry">
            <mxPoint x="1581.6" y="3828" as="sourcePoint" />
            <mxPoint x="1581.6" y="3803" as="targetPoint" />
            <Array as="points">
              <mxPoint x="1581.6" y="3831" />
            </Array>
          </mxGeometry>
        </mxCell>
        <mxCell id="vCoXFfWsMupg1NY0Csr--7" style="edgeStyle=orthogonalEdgeStyle;rounded=0;orthogonalLoop=1;jettySize=auto;html=1;entryX=1;entryY=0.5;entryDx=0;entryDy=0;startArrow=classic;startFill=1;" parent="VsSiiwDWSvhPQYji7nPq-1" source="vCoXFfWsMupg1NY0Csr--8" target="vCoXFfWsMupg1NY0Csr--10" edge="1">
          <mxGeometry relative="1" as="geometry" />
        </mxCell>
        <mxCell id="vCoXFfWsMupg1NY0Csr--8" value="client-opcua.py&lt;br&gt;(OPC UA Client)" style="text;html=1;align=center;verticalAlign=middle;whiteSpace=wrap;rounded=0;fillColor=default;strokeColor=#00572B;" parent="VsSiiwDWSvhPQYji7nPq-1" vertex="1">
          <mxGeometry x="1523.1" y="3625" width="117" height="41" as="geometry" />
        </mxCell>
        <mxCell id="vCoXFfWsMupg1NY0Csr--9" style="edgeStyle=orthogonalEdgeStyle;rounded=0;orthogonalLoop=1;jettySize=auto;html=1;" parent="VsSiiwDWSvhPQYji7nPq-1" edge="1">
          <mxGeometry relative="1" as="geometry">
            <mxPoint x="1581.6" y="3692" as="sourcePoint" />
            <mxPoint x="1581.6" y="3667" as="targetPoint" />
            <Array as="points">
              <mxPoint x="1581.6" y="3695" />
            </Array>
          </mxGeometry>
        </mxCell>
        <mxCell id="vCoXFfWsMupg1NY0Csr--10" value="opcua-mock-server.py&lt;br&gt;(OPC UA Server)" style="text;html=1;align=center;verticalAlign=middle;whiteSpace=wrap;rounded=0;fillColor=default;gradientColor=none;strokeColor=#FF6666;" parent="VsSiiwDWSvhPQYji7nPq-1" vertex="1">
          <mxGeometry x="1257.6" y="3625" width="137" height="41" as="geometry" />
        </mxCell>
        <mxCell id="vCoXFfWsMupg1NY0Csr--11" value="&lt;b&gt;&lt;font style=&quot;font-size: 16px;&quot; color=&quot;#00572b&quot;&gt;digital twin&lt;/font&gt;&lt;/b&gt;" style="text;html=1;strokeColor=none;fillColor=none;align=center;verticalAlign=middle;whiteSpace=wrap;rounded=0;" parent="VsSiiwDWSvhPQYji7nPq-1" vertex="1">
          <mxGeometry x="1510.6" y="3590" width="150" height="30" as="geometry" />
        </mxCell>
        <mxCell id="vCoXFfWsMupg1NY0Csr--12" value="contains:" style="text;whiteSpace=wrap;fontStyle=5" parent="VsSiiwDWSvhPQYji7nPq-1" vertex="1">
          <mxGeometry x="1250.6" y="3749" width="64.5" height="30" as="geometry" />
        </mxCell>
        <mxCell id="vCoXFfWsMupg1NY0Csr--13" style="edgeStyle=orthogonalEdgeStyle;rounded=0;orthogonalLoop=1;jettySize=auto;html=1;" parent="VsSiiwDWSvhPQYji7nPq-1" edge="1">
          <mxGeometry relative="1" as="geometry">
            <mxPoint x="1331.6" y="3731" as="sourcePoint" />
            <mxPoint x="1331.6" y="3671" as="targetPoint" />
            <Array as="points">
              <mxPoint x="1331.6" y="3716" />
              <mxPoint x="1331.6" y="3716" />
            </Array>
          </mxGeometry>
        </mxCell>
        <mxCell id="vCoXFfWsMupg1NY0Csr--14" value="OPC UA&#xa;protocol" style="text;whiteSpace=wrap;align=center;" parent="VsSiiwDWSvhPQYji7nPq-1" vertex="1">
          <mxGeometry x="1420.6" y="3610" width="70" height="30" as="geometry" />
        </mxCell>
        <mxCell id="vCoXFfWsMupg1NY0Csr--15" value="&lt;b&gt;&lt;font color=&quot;#ff6666&quot; style=&quot;font-size: 16px;&quot;&gt;mock physical twin&lt;/font&gt;&lt;/b&gt;" style="text;html=1;strokeColor=none;fillColor=none;align=center;verticalAlign=middle;whiteSpace=wrap;rounded=0;" parent="VsSiiwDWSvhPQYji7nPq-1" vertex="1">
          <mxGeometry x="1250.6" y="3590" width="150" height="30" as="geometry" />
        </mxCell>
        <mxCell id="vCoXFfWsMupg1NY0Csr--16" value="" style="endArrow=classic;html=1;rounded=0;entryX=0;entryY=1;entryDx=0;entryDy=0;" parent="VsSiiwDWSvhPQYji7nPq-1" edge="1">
          <mxGeometry width="50" height="50" relative="1" as="geometry">
            <mxPoint x="1408.6" y="3732" as="sourcePoint" />
            <mxPoint x="1521.1" y="3666" as="targetPoint" />
          </mxGeometry>
        </mxCell>
        <mxCell id="vCoXFfWsMupg1NY0Csr--17" value="configuration_freeopcua.ods" style="text;whiteSpace=wrap;fontStyle=0" parent="VsSiiwDWSvhPQYji7nPq-1" vertex="1">
          <mxGeometry x="1248.6" y="3729" width="184.5" height="30" as="geometry" />
        </mxCell>
        <mxCell id="vCoXFfWsMupg1NY0Csr--18" value="* OPC UA nodeids assigned to inputs and outputs of Test_DTCONEDAR.FMU&#xa;* FMU values for:&#xa;  - parameters&#xa;  - initial values of inputs&#xa;  - initial values of local variables" style="text;whiteSpace=wrap;fontStyle=0" parent="VsSiiwDWSvhPQYji7nPq-1" vertex="1">
          <mxGeometry x="1250.6" y="3771" width="220" height="30" as="geometry" />
        </mxCell>
        <mxCell id="vCoXFfWsMupg1NY0Csr--19" value="create-fmu.mos" style="text;html=1;strokeColor=none;fillColor=none;align=center;verticalAlign=top;whiteSpace=wrap;rounded=0;" parent="VsSiiwDWSvhPQYji7nPq-1" vertex="1">
          <mxGeometry x="1660.6" y="3767" width="100" height="30" as="geometry" />
        </mxCell>
        <mxCell id="vCoXFfWsMupg1NY0Csr--20" style="edgeStyle=orthogonalEdgeStyle;rounded=0;orthogonalLoop=1;jettySize=auto;html=1;exitX=0;exitY=0.433;exitDx=0;exitDy=0;entryX=1;entryY=0.5;entryDx=0;entryDy=0;exitPerimeter=0;" parent="VsSiiwDWSvhPQYji7nPq-1" source="vCoXFfWsMupg1NY0Csr--19" target="vCoXFfWsMupg1NY0Csr--2" edge="1">
          <mxGeometry relative="1" as="geometry">
            <mxPoint x="1591.6" y="3838" as="sourcePoint" />
            <mxPoint x="1591.6" y="3813" as="targetPoint" />
            <Array as="points">
              <mxPoint x="1660.6" y="3780" />
              <mxPoint x="1660.6" y="3780" />
            </Array>
          </mxGeometry>
        </mxCell>
      </root>
    </mxGraphModel>
  </diagram>
</mxfile>
